<svg version="1.0" xmlns="http://www.w3.org/2000/svg"
 width="1280.000000pt" height="640.000000pt" viewBox="0 0 1280.000000 640.000000"
 preserveAspectRatio="xMidYMid meet">
<metadata>
Created by potrace 1.15, written by Peter Selinger 2001-2017
</metadata>
<g transform="translate(0.000000,640.000000) scale(0.100000,-0.100000)"
fill="#000000" stroke="none">
<path d="M7340 6393 c-14 -2 -69 -23 -123 -45 -75 -31 -96 -44 -93 -57 7 -23
96 -392 96 -397 0 -9 -1751 -3 -1980 6 -274 11 -422 20 -980 56 -1316 85
-1655 83 -2280 -12 -335 -51 -879 -171 -1240 -273 -74 -22 -173 -49 -220 -61
-110 -30 -147 -49 -196 -102 -78 -85 -123 -190 -174 -403 -57 -241 -95 -550
-127 -1025 -25 -377 -25 -1383 0 -1760 32 -475 70 -784 127 -1025 51 -213 96
-318 174 -403 49 -53 86 -72 196 -102 47 -12 146 -39 220 -60 491 -140 1076
-260 1505 -310 476 -55 848 -51 2015 24 558 36 706 45 980 56 229 9 1980 15
1980 6 0 -5 -89 -374 -96 -397 -3 -13 19 -26 98 -60 98 -41 108 -43 198 -43
105 0 159 18 232 75 49 39 58 57 138 259 l66 165 663 -4 663 -3 101 -38 c197
-74 395 -100 772 -100 626 0 1036 78 1441 276 680 331 1115 973 1252 1849 40
250 47 361 47 715 0 354 -7 465 -47 715 -137 876 -572 1518 -1252 1849 -405
198 -815 276 -1441 276 -377 0 -575 -26 -772 -100 l-101 -38 -663 -3 -663 -4
-66 165 c-36 91 -73 179 -82 196 -22 40 -81 88 -144 115 -49 21 -171 33 -224
22z"/>
</g>
</svg>
